<?xml version="1.0" encoding="UTF-8" standalone="no"?>
<!DOCTYPE svg PUBLIC "-//W3C//DTD SVG 1.1//EN"
 "http://www.w3.org/Graphics/SVG/1.1/DTD/svg11.dtd">
<!-- Generated by graphviz version 2.43.0 (0)
 -->
<!-- Title: sourcetree Pages: 1 -->
<svg width="2359pt" height="260pt"
 viewBox="0.00 0.00 2359.00 260.00" xmlns="http://www.w3.org/2000/svg" xmlns:xlink="http://www.w3.org/1999/xlink">
<g id="graph0" class="graph" transform="scale(1 1) rotate(0) translate(4 256)">
<title>sourcetree</title>
<polygon fill="white" stroke="transparent" points="-4,4 -4,-256 2355,-256 2355,4 -4,4"/>
<!-- MulleCivetWeb -->
<g id="node1" class="node">
<title>MulleCivetWeb</title>
<polygon fill="yellow" stroke="black" points="1790,-252 1665,-252 1665,-216 1790,-216 1790,-252"/>
<text text-anchor="middle" x="1727.5" y="-230.3" font-family="Times,serif" font-size="14.00">MulleCivetWeb</text>
</g>
<!-- MulleFoundation -->
<g id="node2" class="node">
<title>MulleFoundation</title>
<polygon fill="lightgrey" stroke="black" points="1038,-180 901,-180 901,-144 1038,-144 1038,-180"/>
<text text-anchor="middle" x="969.5" y="-158.3" font-family="Times,serif" font-size="14.00">MulleFoundation</text>
</g>
<!-- MulleCivetWeb&#45;&gt;MulleFoundation -->
<g id="edge1" class="edge">
<title>MulleCivetWeb&#45;&gt;MulleFoundation</title>
<path fill="none" stroke="black" d="M1664.82,-227.21C1527.34,-214.52 1199.54,-184.24 1048.35,-170.28"/>
<polygon fill="black" stroke="black" points="1048.5,-166.78 1038.22,-169.35 1047.85,-173.75 1048.5,-166.78"/>
</g>
<!-- MulleObjCHTTPFoundation -->
<g id="node3" class="node">
<title>MulleObjCHTTPFoundation</title>
<polygon fill="lightgrey" stroke="black" points="1834,-180 1621,-180 1621,-144 1834,-144 1834,-180"/>
<text text-anchor="middle" x="1727.5" y="-158.3" font-family="Times,serif" font-size="14.00">MulleObjCHTTPFoundation</text>
</g>
<!-- MulleCivetWeb&#45;&gt;MulleObjCHTTPFoundation -->
<g id="edge2" class="edge">
<title>MulleCivetWeb&#45;&gt;MulleObjCHTTPFoundation</title>
<path fill="none" stroke="black" d="M1727.5,-215.7C1727.5,-207.98 1727.5,-198.71 1727.5,-190.11"/>
<polygon fill="black" stroke="black" points="1731,-190.1 1727.5,-180.1 1724,-190.1 1731,-190.1"/>
</g>
<!-- src/civetweb -->
<g id="node4" class="node">
<title>src/civetweb</title>
<polygon fill="lightgrey" stroke="black" points="1959,-180 1852,-180 1852,-144 1959,-144 1959,-180"/>
<text text-anchor="middle" x="1905.5" y="-158.3" font-family="Times,serif" font-size="14.00">src/civetweb</text>
</g>
<!-- MulleCivetWeb&#45;&gt;src/civetweb -->
<g id="edge3" class="edge">
<title>MulleCivetWeb&#45;&gt;src/civetweb</title>
<path fill="none" stroke="black" d="M1771.04,-215.88C1795.7,-206.18 1826.72,-193.98 1852.75,-183.74"/>
<polygon fill="black" stroke="black" points="1854.07,-186.99 1862.1,-180.07 1851.51,-180.47 1854.07,-186.99"/>
</g>
<!-- MulleObjCArchiverFoundation -->
<g id="node5" class="node">
<title>MulleObjCArchiverFoundation</title>
<polygon fill="lightgrey" stroke="black" points="233,-108 0,-108 0,-72 233,-72 233,-108"/>
<text text-anchor="middle" x="116.5" y="-86.3" font-family="Times,serif" font-size="14.00">MulleObjCArchiverFoundation</text>
</g>
<!-- MulleFoundation&#45;&gt;MulleObjCArchiverFoundation -->
<g id="edge4" class="edge">
<title>MulleFoundation&#45;&gt;MulleObjCArchiverFoundation</title>
<path fill="none" stroke="black" d="M900.87,-157.44C773.39,-150.51 491.19,-133.69 243.52,-108.18"/>
<polygon fill="black" stroke="black" points="243.55,-104.66 233.24,-107.11 242.83,-111.62 243.55,-104.66"/>
</g>
<!-- MulleObjCCalendarFoundation -->
<g id="node6" class="node">
<title>MulleObjCCalendarFoundation</title>
<polygon fill="lightgrey" stroke="black" points="488,-108 251,-108 251,-72 488,-72 488,-108"/>
<text text-anchor="middle" x="369.5" y="-86.3" font-family="Times,serif" font-size="14.00">MulleObjCCalendarFoundation</text>
</g>
<!-- MulleFoundation&#45;&gt;MulleObjCCalendarFoundation -->
<g id="edge5" class="edge">
<title>MulleFoundation&#45;&gt;MulleObjCCalendarFoundation</title>
<path fill="none" stroke="black" d="M900.66,-153.71C810.77,-144.09 648.24,-126.37 498.35,-108.09"/>
<polygon fill="black" stroke="black" points="498.39,-104.57 488.04,-106.83 497.54,-111.52 498.39,-104.57"/>
</g>
<!-- MulleObjCDecimalFoundation -->
<g id="node7" class="node">
<title>MulleObjCDecimalFoundation</title>
<polygon fill="lightgrey" stroke="black" points="736.5,-108 506.5,-108 506.5,-72 736.5,-72 736.5,-108"/>
<text text-anchor="middle" x="621.5" y="-86.3" font-family="Times,serif" font-size="14.00">MulleObjCDecimalFoundation</text>
</g>
<!-- MulleFoundation&#45;&gt;MulleObjCDecimalFoundation -->
<g id="edge6" class="edge">
<title>MulleFoundation&#45;&gt;MulleObjCDecimalFoundation</title>
<path fill="none" stroke="black" d="M900.75,-147.17C847.94,-136.55 774.42,-121.76 716.08,-110.02"/>
<polygon fill="black" stroke="black" points="716.6,-106.56 706.11,-108.02 715.22,-113.42 716.6,-106.56"/>
</g>
<!-- MulleObjCKVCFoundation -->
<g id="node8" class="node">
<title>MulleObjCKVCFoundation</title>
<polygon fill="lightgrey" stroke="black" points="958,-108 755,-108 755,-72 958,-72 958,-108"/>
<text text-anchor="middle" x="856.5" y="-86.3" font-family="Times,serif" font-size="14.00">MulleObjCKVCFoundation</text>
</g>
<!-- MulleFoundation&#45;&gt;MulleObjCKVCFoundation -->
<g id="edge7" class="edge">
<title>MulleFoundation&#45;&gt;MulleObjCKVCFoundation</title>
<path fill="none" stroke="black" d="M941.86,-143.88C927.08,-134.72 908.71,-123.34 892.8,-113.48"/>
<polygon fill="black" stroke="black" points="894.59,-110.48 884.25,-108.19 890.91,-116.43 894.59,-110.48"/>
</g>
<!-- MulleObjCMathFoundation -->
<g id="node9" class="node">
<title>MulleObjCMathFoundation</title>
<polygon fill="lightgrey" stroke="black" points="1186.5,-108 976.5,-108 976.5,-72 1186.5,-72 1186.5,-108"/>
<text text-anchor="middle" x="1081.5" y="-86.3" font-family="Times,serif" font-size="14.00">MulleObjCMathFoundation</text>
</g>
<!-- MulleFoundation&#45;&gt;MulleObjCMathFoundation -->
<g id="edge8" class="edge">
<title>MulleFoundation&#45;&gt;MulleObjCMathFoundation</title>
<path fill="none" stroke="black" d="M996.9,-143.88C1011.41,-134.81 1029.42,-123.55 1045.09,-113.76"/>
<polygon fill="black" stroke="black" points="1047.37,-116.46 1054,-108.19 1043.66,-110.52 1047.37,-116.46"/>
</g>
<!-- MulleObjCOSFoundation -->
<g id="node10" class="node">
<title>MulleObjCOSFoundation</title>
<polygon fill="lightgrey" stroke="black" points="1398.5,-108 1204.5,-108 1204.5,-72 1398.5,-72 1398.5,-108"/>
<text text-anchor="middle" x="1301.5" y="-86.3" font-family="Times,serif" font-size="14.00">MulleObjCOSFoundation</text>
</g>
<!-- MulleFoundation&#45;&gt;MulleObjCOSFoundation -->
<g id="edge9" class="edge">
<title>MulleFoundation&#45;&gt;MulleObjCOSFoundation</title>
<path fill="none" stroke="black" d="M1038.29,-146.5C1088.27,-135.96 1156.39,-121.6 1210.81,-110.12"/>
<polygon fill="black" stroke="black" points="1211.74,-113.5 1220.81,-108.01 1210.3,-106.65 1211.74,-113.5"/>
</g>
<!-- MulleObjCUnicodeFoundation -->
<g id="node11" class="node">
<title>MulleObjCUnicodeFoundation</title>
<polygon fill="lightgrey" stroke="black" points="1647,-108 1416,-108 1416,-72 1647,-72 1647,-108"/>
<text text-anchor="middle" x="1531.5" y="-86.3" font-family="Times,serif" font-size="14.00">MulleObjCUnicodeFoundation</text>
</g>
<!-- MulleFoundation&#45;&gt;MulleObjCUnicodeFoundation -->
<g id="edge10" class="edge">
<title>MulleFoundation&#45;&gt;MulleObjCUnicodeFoundation</title>
<path fill="none" stroke="black" d="M1038.2,-153.03C1122.37,-143.18 1269.62,-125.72 1405.8,-108.21"/>
<polygon fill="black" stroke="black" points="1406.53,-111.64 1416,-106.9 1405.63,-104.7 1406.53,-111.64"/>
</g>
<!-- mulle&#45;http -->
<g id="node12" class="node">
<title>mulle&#45;http</title>
<polygon fill="lightgrey" stroke="black" points="1773,-108 1682,-108 1682,-72 1773,-72 1773,-108"/>
<text text-anchor="middle" x="1727.5" y="-86.3" font-family="Times,serif" font-size="14.00">mulle&#45;http</text>
</g>
<!-- MulleObjCHTTPFoundation&#45;&gt;mulle&#45;http -->
<g id="edge12" class="edge">
<title>MulleObjCHTTPFoundation&#45;&gt;mulle&#45;http</title>
<path fill="none" stroke="black" d="M1727.5,-143.7C1727.5,-135.98 1727.5,-126.71 1727.5,-118.11"/>
<polygon fill="black" stroke="black" points="1731,-118.1 1727.5,-108.1 1724,-118.1 1731,-118.1"/>
</g>
<!-- MulleObjCInetFoundation -->
<g id="node14" class="node">
<title>MulleObjCInetFoundation</title>
<polygon fill="lightgrey" stroke="black" points="2113,-108 1912,-108 1912,-72 2113,-72 2113,-108"/>
<text text-anchor="middle" x="2012.5" y="-86.3" font-family="Times,serif" font-size="14.00">MulleObjCInetFoundation</text>
</g>
<!-- MulleObjCHTTPFoundation&#45;&gt;MulleObjCInetFoundation -->
<g id="edge13" class="edge">
<title>MulleObjCHTTPFoundation&#45;&gt;MulleObjCInetFoundation</title>
<path fill="none" stroke="black" d="M1796.85,-143.97C1837.97,-133.87 1890.24,-121.03 1933.02,-110.52"/>
<polygon fill="black" stroke="black" points="1933.96,-113.9 1942.83,-108.11 1932.29,-107.1 1933.96,-113.9"/>
</g>
<!-- src/BSD -->
<g id="node18" class="node">
<title>src/BSD</title>
<polygon fill="lightgrey" stroke="black" points="986.5,-36 912.5,-36 912.5,0 986.5,0 986.5,-36"/>
<text text-anchor="middle" x="949.5" y="-14.3" font-family="Times,serif" font-size="14.00">src/BSD</text>
</g>
<!-- MulleObjCOSFoundation&#45;&gt;src/BSD -->
<g id="edge17" class="edge">
<title>MulleObjCOSFoundation&#45;&gt;src/BSD</title>
<path fill="none" stroke="black" d="M1204.42,-73.1C1130.23,-60.81 1035.42,-44.76 996.81,-35.91"/>
<polygon fill="black" stroke="black" points="997.27,-32.42 986.72,-33.4 995.58,-39.21 997.27,-32.42"/>
</g>
<!-- src/Darwin -->
<g id="node19" class="node">
<title>src/Darwin</title>
<polygon fill="lightgrey" stroke="black" points="1100,-36 1005,-36 1005,0 1100,0 1100,-36"/>
<text text-anchor="middle" x="1052.5" y="-14.3" font-family="Times,serif" font-size="14.00">src/Darwin</text>
</g>
<!-- MulleObjCOSFoundation&#45;&gt;src/Darwin -->
<g id="edge18" class="edge">
<title>MulleObjCOSFoundation&#45;&gt;src/Darwin</title>
<path fill="none" stroke="black" d="M1237.92,-72C1202.59,-62.44 1157.6,-50.1 1109.74,-36.33"/>
<polygon fill="black" stroke="black" points="1110.71,-32.97 1100.13,-33.55 1108.77,-39.69 1110.71,-32.97"/>
</g>
<!-- src/FreeBSD -->
<g id="node20" class="node">
<title>src/FreeBSD</title>
<polygon fill="lightgrey" stroke="black" points="1225,-36 1118,-36 1118,0 1225,0 1225,-36"/>
<text text-anchor="middle" x="1171.5" y="-14.3" font-family="Times,serif" font-size="14.00">src/FreeBSD</text>
</g>
<!-- MulleObjCOSFoundation&#45;&gt;src/FreeBSD -->
<g id="edge19" class="edge">
<title>MulleObjCOSFoundation&#45;&gt;src/FreeBSD</title>
<path fill="none" stroke="black" d="M1269.7,-71.88C1252.39,-62.55 1230.78,-50.92 1212.24,-40.94"/>
<polygon fill="black" stroke="black" points="1213.89,-37.85 1203.42,-36.19 1210.57,-44.01 1213.89,-37.85"/>
</g>
<!-- src/Linux -->
<g id="node21" class="node">
<title>src/Linux</title>
<polygon fill="lightgrey" stroke="black" points="1326,-36 1243,-36 1243,0 1326,0 1326,-36"/>
<text text-anchor="middle" x="1284.5" y="-14.3" font-family="Times,serif" font-size="14.00">src/Linux</text>
</g>
<!-- MulleObjCOSFoundation&#45;&gt;src/Linux -->
<g id="edge20" class="edge">
<title>MulleObjCOSFoundation&#45;&gt;src/Linux</title>
<path fill="none" stroke="black" d="M1297.3,-71.7C1295.4,-63.9 1293.12,-54.51 1291.02,-45.83"/>
<polygon fill="black" stroke="black" points="1294.42,-45 1288.65,-36.1 1287.61,-46.65 1294.42,-45"/>
</g>
<!-- src/OSBase -->
<g id="node22" class="node">
<title>src/OSBase</title>
<polygon fill="lightgrey" stroke="black" points="1442.5,-36 1344.5,-36 1344.5,0 1442.5,0 1442.5,-36"/>
<text text-anchor="middle" x="1393.5" y="-14.3" font-family="Times,serif" font-size="14.00">src/OSBase</text>
</g>
<!-- MulleObjCOSFoundation&#45;&gt;src/OSBase -->
<g id="edge21" class="edge">
<title>MulleObjCOSFoundation&#45;&gt;src/OSBase</title>
<path fill="none" stroke="black" d="M1324.24,-71.7C1335.94,-62.8 1350.36,-51.82 1363.01,-42.2"/>
<polygon fill="black" stroke="black" points="1365.18,-44.94 1371.02,-36.1 1360.94,-39.37 1365.18,-44.94"/>
</g>
<!-- src/Posix -->
<g id="node23" class="node">
<title>src/Posix</title>
<polygon fill="lightgrey" stroke="black" points="1540.5,-36 1460.5,-36 1460.5,0 1540.5,0 1540.5,-36"/>
<text text-anchor="middle" x="1500.5" y="-14.3" font-family="Times,serif" font-size="14.00">src/Posix</text>
</g>
<!-- MulleObjCOSFoundation&#45;&gt;src/Posix -->
<g id="edge22" class="edge">
<title>MulleObjCOSFoundation&#45;&gt;src/Posix</title>
<path fill="none" stroke="black" d="M1349.93,-71.97C1380.45,-61.23 1419.76,-47.4 1450.57,-36.56"/>
<polygon fill="black" stroke="black" points="1451.98,-39.78 1460.25,-33.16 1449.65,-33.18 1451.98,-39.78"/>
</g>
<!-- src/Windows -->
<g id="node24" class="node">
<title>src/Windows</title>
<polygon fill="lightgrey" stroke="black" points="1666,-36 1559,-36 1559,0 1666,0 1666,-36"/>
<text text-anchor="middle" x="1612.5" y="-14.3" font-family="Times,serif" font-size="14.00">src/Windows</text>
</g>
<!-- MulleObjCOSFoundation&#45;&gt;src/Windows -->
<g id="edge23" class="edge">
<title>MulleObjCOSFoundation&#45;&gt;src/Windows</title>
<path fill="none" stroke="black" d="M1386.69,-71.96C1432.13,-62.59 1489.19,-50.39 1548.93,-36.07"/>
<polygon fill="black" stroke="black" points="1550.03,-39.41 1558.93,-33.66 1548.39,-32.6 1550.03,-39.41"/>
</g>
<!-- mulle&#45;c11 -->
<g id="node13" class="node">
<title>mulle&#45;c11</title>
<polygon fill="lightgrey" stroke="black" points="1770.5,-36 1684.5,-36 1684.5,0 1770.5,0 1770.5,-36"/>
<text text-anchor="middle" x="1727.5" y="-14.3" font-family="Times,serif" font-size="14.00">mulle&#45;c11</text>
</g>
<!-- mulle&#45;http&#45;&gt;mulle&#45;c11 -->
<g id="edge11" class="edge">
<title>mulle&#45;http&#45;&gt;mulle&#45;c11</title>
<path fill="none" stroke="black" d="M1727.5,-71.7C1727.5,-63.98 1727.5,-54.71 1727.5,-46.11"/>
<polygon fill="black" stroke="black" points="1731,-46.1 1727.5,-36.1 1724,-46.1 1731,-46.1"/>
</g>
<!-- MulleObjCLockFoundation -->
<g id="node15" class="node">
<title>MulleObjCLockFoundation</title>
<polygon fill="lightgrey" stroke="black" points="1994.5,-36 1788.5,-36 1788.5,0 1994.5,0 1994.5,-36"/>
<text text-anchor="middle" x="1891.5" y="-14.3" font-family="Times,serif" font-size="14.00">MulleObjCLockFoundation</text>
</g>
<!-- MulleObjCInetFoundation&#45;&gt;MulleObjCLockFoundation -->
<g id="edge14" class="edge">
<title>MulleObjCInetFoundation&#45;&gt;MulleObjCLockFoundation</title>
<path fill="none" stroke="black" d="M1982.9,-71.88C1966.93,-62.64 1947.04,-51.13 1929.89,-41.21"/>
<polygon fill="black" stroke="black" points="1931.62,-38.17 1921.21,-36.19 1928.12,-44.23 1931.62,-38.17"/>
</g>
<!-- MulleObjCStandardFoundation -->
<g id="node16" class="node">
<title>MulleObjCStandardFoundation</title>
<polygon fill="lightgrey" stroke="black" points="2252,-36 2013,-36 2013,0 2252,0 2252,-36"/>
<text text-anchor="middle" x="2132.5" y="-14.3" font-family="Times,serif" font-size="14.00">MulleObjCStandardFoundation</text>
</g>
<!-- MulleObjCInetFoundation&#45;&gt;MulleObjCStandardFoundation -->
<g id="edge15" class="edge">
<title>MulleObjCInetFoundation&#45;&gt;MulleObjCStandardFoundation</title>
<path fill="none" stroke="black" d="M2041.86,-71.88C2057.55,-62.72 2077.06,-51.34 2093.95,-41.48"/>
<polygon fill="black" stroke="black" points="2096.16,-44.25 2103.03,-36.19 2092.63,-38.21 2096.16,-44.25"/>
</g>
<!-- mulle&#45;url -->
<g id="node17" class="node">
<title>mulle&#45;url</title>
<polygon fill="lightgrey" stroke="black" points="2351,-36 2270,-36 2270,0 2351,0 2351,-36"/>
<text text-anchor="middle" x="2310.5" y="-14.3" font-family="Times,serif" font-size="14.00">mulle&#45;url</text>
</g>
<!-- MulleObjCInetFoundation&#45;&gt;mulle&#45;url -->
<g id="edge16" class="edge">
<title>MulleObjCInetFoundation&#45;&gt;mulle&#45;url</title>
<path fill="none" stroke="black" d="M2105.99,-71.96C2150.42,-63.18 2204.35,-51.54 2260.26,-36.19"/>
<polygon fill="black" stroke="black" points="2261.28,-39.54 2269.98,-33.49 2259.41,-32.8 2261.28,-39.54"/>
</g>
</g>
</svg>
