<?xml version="1.0" encoding="UTF-8" standalone="no"?>
<!DOCTYPE svg PUBLIC "-//W3C//DTD SVG 1.1//EN"
 "http://www.w3.org/Graphics/SVG/1.1/DTD/svg11.dtd">
<!-- Generated by graphviz version 2.43.0 (0)
 -->
<!-- Title: sourcetree Pages: 1 -->
<svg width="925pt" height="260pt"
 viewBox="0.00 0.00 925.00 260.00" xmlns="http://www.w3.org/2000/svg" xmlns:xlink="http://www.w3.org/1999/xlink">
<g id="graph0" class="graph" transform="scale(1 1) rotate(0) translate(4 256)">
<title>sourcetree</title>
<polygon fill="white" stroke="transparent" points="-4,4 -4,-256 921,-256 921,4 -4,4"/>
<!-- MulleCivetWeb -->
<g id="node1" class="node">
<title>MulleCivetWeb</title>
<polygon fill="yellow" stroke="black" points="496,-252 371,-252 371,-216 496,-216 496,-252"/>
<text text-anchor="middle" x="433.5" y="-230.3" font-family="Times,serif" font-size="14.00">MulleCivetWeb</text>
</g>
<!-- civetweb -->
<g id="node2" class="node">
<title>civetweb</title>
<g id="a_node2"><a xlink:href="https://github.com/MulleWeb/civetweb" xlink:title="civetweb">
<polygon fill="lightgrey" stroke="black" points="346.5,-180 266.5,-180 266.5,-144 346.5,-144 346.5,-180"/>
<text text-anchor="middle" x="306.5" y="-158.3" font-family="Times,serif" font-size="14.00">civetweb</text>
</a>
</g>
</g>
<!-- MulleCivetWeb&#45;&gt;civetweb -->
<g id="edge1" class="edge">
<title>MulleCivetWeb&#45;&gt;civetweb</title>
<path fill="none" stroke="black" d="M402.43,-215.88C385.67,-206.64 364.79,-195.13 346.8,-185.21"/>
<polygon fill="black" stroke="black" points="348.13,-181.95 337.69,-180.19 344.76,-188.08 348.13,-181.95"/>
</g>
<!-- MulleFoundation -->
<g id="node3" class="node">
<title>MulleFoundation</title>
<g id="a_node3"><a xlink:href="https://github.com/MulleFoundation/MulleFoundation" xlink:title="MulleFoundation">
<polygon fill="lightgrey" stroke="black" points="502,-180 365,-180 365,-144 502,-144 502,-180"/>
<text text-anchor="middle" x="433.5" y="-158.3" font-family="Times,serif" font-size="14.00">MulleFoundation</text>
</a>
</g>
</g>
<!-- MulleCivetWeb&#45;&gt;MulleFoundation -->
<g id="edge2" class="edge">
<title>MulleCivetWeb&#45;&gt;MulleFoundation</title>
<path fill="none" stroke="black" d="M433.5,-215.7C433.5,-207.98 433.5,-198.71 433.5,-190.11"/>
<polygon fill="black" stroke="black" points="437,-190.1 433.5,-180.1 430,-190.1 437,-190.1"/>
</g>
<!-- MulleObjCHTTPFoundation -->
<g id="node4" class="node">
<title>MulleObjCHTTPFoundation</title>
<g id="a_node4"><a xlink:href="https://github.com/MulleWeb/MulleObjCHTTPFoundation" xlink:title="MulleObjCHTTPFoundation">
<polygon fill="lightgrey" stroke="black" points="859,-180 646,-180 646,-144 859,-144 859,-180"/>
<text text-anchor="middle" x="752.5" y="-158.3" font-family="Times,serif" font-size="14.00">MulleObjCHTTPFoundation</text>
</a>
</g>
</g>
<!-- MulleCivetWeb&#45;&gt;MulleObjCHTTPFoundation -->
<g id="edge3" class="edge">
<title>MulleCivetWeb&#45;&gt;MulleObjCHTTPFoundation</title>
<path fill="none" stroke="black" d="M496.14,-219.25C544.31,-208.68 611.45,-193.95 664.94,-182.21"/>
<polygon fill="black" stroke="black" points="665.74,-185.62 674.76,-180.06 664.24,-178.78 665.74,-185.62"/>
</g>
<!-- MulleObjCCalendarFoundation -->
<g id="node6" class="node">
<title>MulleObjCCalendarFoundation</title>
<g id="a_node6"><a xlink:href="https://github.com/MulleFoundation/MulleObjCCalendarFoundation" xlink:title="MulleObjCCalendarFoundation">
<polygon fill="lightgrey" stroke="black" points="237,-108 0,-108 0,-72 237,-72 237,-108"/>
<text text-anchor="middle" x="118.5" y="-86.3" font-family="Times,serif" font-size="14.00">MulleObjCCalendarFoundation</text>
</a>
</g>
</g>
<!-- MulleFoundation&#45;&gt;MulleObjCCalendarFoundation -->
<g id="edge4" class="edge">
<title>MulleFoundation&#45;&gt;MulleObjCCalendarFoundation</title>
<path fill="none" stroke="black" d="M364.76,-145.72C317.84,-135.3 255.3,-121.4 204.99,-110.22"/>
<polygon fill="black" stroke="black" points="205.62,-106.78 195.1,-108.02 204.11,-113.61 205.62,-106.78"/>
</g>
<!-- MulleObjCDecimalFoundation -->
<g id="node7" class="node">
<title>MulleObjCDecimalFoundation</title>
<g id="a_node7"><a xlink:href="https://github.com/MulleFoundation/MulleObjCDecimalFoundation" xlink:title="MulleObjCDecimalFoundation">
<polygon fill="lightgrey" stroke="black" points="485.5,-108 255.5,-108 255.5,-72 485.5,-72 485.5,-108"/>
<text text-anchor="middle" x="370.5" y="-86.3" font-family="Times,serif" font-size="14.00">MulleObjCDecimalFoundation</text>
</a>
</g>
</g>
<!-- MulleFoundation&#45;&gt;MulleObjCDecimalFoundation -->
<g id="edge5" class="edge">
<title>MulleFoundation&#45;&gt;MulleObjCDecimalFoundation</title>
<path fill="none" stroke="black" d="M417.93,-143.7C410.3,-135.22 400.98,-124.86 392.62,-115.58"/>
<polygon fill="black" stroke="black" points="395.19,-113.2 385.89,-108.1 389.98,-117.88 395.19,-113.2"/>
</g>
<!-- MulleObjCOSFoundation -->
<g id="node8" class="node">
<title>MulleObjCOSFoundation</title>
<g id="a_node8"><a xlink:href="https://github.com/MulleFoundation/MulleObjCOSFoundation" xlink:title="MulleObjCOSFoundation">
<polygon fill="lightgrey" stroke="black" points="697.5,-108 503.5,-108 503.5,-72 697.5,-72 697.5,-108"/>
<text text-anchor="middle" x="600.5" y="-86.3" font-family="Times,serif" font-size="14.00">MulleObjCOSFoundation</text>
</a>
</g>
</g>
<!-- MulleFoundation&#45;&gt;MulleObjCOSFoundation -->
<g id="edge6" class="edge">
<title>MulleFoundation&#45;&gt;MulleObjCOSFoundation</title>
<path fill="none" stroke="black" d="M474.35,-143.88C497.28,-134.26 526.08,-122.19 550.37,-112.01"/>
<polygon fill="black" stroke="black" points="551.91,-115.16 559.78,-108.07 549.2,-108.71 551.91,-115.16"/>
</g>
<!-- MulleObjCInetFoundation -->
<g id="node9" class="node">
<title>MulleObjCInetFoundation</title>
<g id="a_node9"><a xlink:href="https://github.com/MulleWeb/MulleObjCInetFoundation" xlink:title="MulleObjCInetFoundation">
<polygon fill="lightgrey" stroke="black" points="917,-108 716,-108 716,-72 917,-72 917,-108"/>
<text text-anchor="middle" x="816.5" y="-86.3" font-family="Times,serif" font-size="14.00">MulleObjCInetFoundation</text>
</a>
</g>
</g>
<!-- MulleObjCHTTPFoundation&#45;&gt;MulleObjCInetFoundation -->
<g id="edge7" class="edge">
<title>MulleObjCHTTPFoundation&#45;&gt;MulleObjCInetFoundation</title>
<path fill="none" stroke="black" d="M768.32,-143.7C776.07,-135.22 785.54,-124.86 794.02,-115.58"/>
<polygon fill="black" stroke="black" points="796.7,-117.85 800.86,-108.1 791.53,-113.12 796.7,-117.85"/>
</g>
<!-- MulleFoundationBase -->
<g id="node5" class="node">
<title>MulleFoundationBase</title>
<g id="a_node5"><a xlink:href="https://github.com/MulleFoundation/MulleFoundationBase" xlink:title="MulleFoundationBase">
<polygon fill="lightgrey" stroke="black" points="902.5,-36 730.5,-36 730.5,0 902.5,0 902.5,-36"/>
<text text-anchor="middle" x="816.5" y="-14.3" font-family="Times,serif" font-size="14.00">MulleFoundationBase</text>
</a>
</g>
</g>
<!-- MulleObjCInetFoundation&#45;&gt;MulleFoundationBase -->
<g id="edge8" class="edge">
<title>MulleObjCInetFoundation&#45;&gt;MulleFoundationBase</title>
<path fill="none" stroke="black" d="M816.5,-71.7C816.5,-63.98 816.5,-54.71 816.5,-46.11"/>
<polygon fill="black" stroke="black" points="820,-46.1 816.5,-36.1 813,-46.1 820,-46.1"/>
</g>
</g>
</svg>
