<?xml version="1.0" encoding="UTF-8" standalone="no"?>
<!DOCTYPE svg PUBLIC "-//W3C//DTD SVG 1.1//EN"
 "http://www.w3.org/Graphics/SVG/1.1/DTD/svg11.dtd">
<!-- Generated by graphviz version 2.43.0 (0)
 -->
<!-- Title: sourcetree Pages: 1 -->
<svg width="1048pt" height="260pt"
 viewBox="0.00 0.00 1047.50 260.00" xmlns="http://www.w3.org/2000/svg" xmlns:xlink="http://www.w3.org/1999/xlink">
<g id="graph0" class="graph" transform="scale(1 1) rotate(0) translate(4 256)">
<title>sourcetree</title>
<polygon fill="white" stroke="transparent" points="-4,4 -4,-256 1043.5,-256 1043.5,4 -4,4"/>
<!-- MulleCivetWeb -->
<g id="node1" class="node">
<title>MulleCivetWeb</title>
<polygon fill="yellow" stroke="black" points="496,-252 371,-252 371,-216 496,-216 496,-252"/>
<text text-anchor="middle" x="433.5" y="-230.3" font-family="Times,serif" font-size="14.00">MulleCivetWeb</text>
</g>
<!-- civetweb -->
<g id="node3" class="node">
<title>civetweb</title>
<g id="a_node3"><a xlink:href="https://github.com/mulle-nat/civetweb" xlink:title="civetweb">
<polygon fill="lightgrey" stroke="black" points="346.5,-180 266.5,-180 266.5,-144 346.5,-144 346.5,-180"/>
<text text-anchor="middle" x="306.5" y="-158.3" font-family="Times,serif" font-size="14.00">civetweb</text>
</a>
</g>
</g>
<!-- MulleCivetWeb&#45;&gt;civetweb -->
<g id="edge1" class="edge">
<title>MulleCivetWeb&#45;&gt;civetweb</title>
<path fill="none" stroke="black" d="M402.43,-215.88C385.67,-206.64 364.79,-195.13 346.8,-185.21"/>
<polygon fill="black" stroke="black" points="348.13,-181.95 337.69,-180.19 344.76,-188.08 348.13,-181.95"/>
</g>
<!-- MulleFoundation -->
<g id="node7" class="node">
<title>MulleFoundation</title>
<g id="a_node7"><a xlink:href="https://github.com/MulleFoundation/MulleFoundation" xlink:title="MulleFoundation">
<polygon fill="lightgrey" stroke="black" points="502,-180 365,-180 365,-144 502,-144 502,-180"/>
<text text-anchor="middle" x="433.5" y="-158.3" font-family="Times,serif" font-size="14.00">MulleFoundation</text>
</a>
</g>
</g>
<!-- MulleCivetWeb&#45;&gt;MulleFoundation -->
<g id="edge2" class="edge">
<title>MulleCivetWeb&#45;&gt;MulleFoundation</title>
<path fill="none" stroke="black" d="M433.5,-215.7C433.5,-207.98 433.5,-198.71 433.5,-190.11"/>
<polygon fill="black" stroke="black" points="437,-190.1 433.5,-180.1 430,-190.1 437,-190.1"/>
</g>
<!-- MulleObjCHTTPFoundation -->
<g id="node8" class="node">
<title>MulleObjCHTTPFoundation</title>
<g id="a_node8"><a xlink:href="https://github.com/MulleWeb/MulleObjCHTTPFoundation" xlink:title="MulleObjCHTTPFoundation">
<polygon fill="lightgrey" stroke="black" points="907,-180 694,-180 694,-144 907,-144 907,-180"/>
<text text-anchor="middle" x="800.5" y="-158.3" font-family="Times,serif" font-size="14.00">MulleObjCHTTPFoundation</text>
</a>
</g>
</g>
<!-- MulleCivetWeb&#45;&gt;MulleObjCHTTPFoundation -->
<g id="edge3" class="edge">
<title>MulleCivetWeb&#45;&gt;MulleObjCHTTPFoundation</title>
<path fill="none" stroke="black" d="M496.17,-221.05C552.45,-210.31 636.02,-194.37 701.36,-181.91"/>
<polygon fill="black" stroke="black" points="702.1,-185.33 711.27,-180.02 700.79,-178.46 702.1,-185.33"/>
</g>
<!-- BSD -->
<g id="node2" class="node">
<title>BSD</title>
<g id="a_node2"><a xlink:href="https://unknown.com/" xlink:title="BSD">
<polygon fill="lightgrey" stroke="black" points="327.5,-36 273.5,-36 273.5,0 327.5,0 327.5,-36"/>
<text text-anchor="middle" x="300.5" y="-14.3" font-family="Times,serif" font-size="14.00">BSD</text>
</a>
</g>
</g>
<!-- Darwin -->
<g id="node4" class="node">
<title>Darwin</title>
<g id="a_node4"><a xlink:href="https://unknown.com/" xlink:title="Darwin">
<polygon fill="lightgrey" stroke="black" points="413.5,-36 345.5,-36 345.5,0 413.5,0 413.5,-36"/>
<text text-anchor="middle" x="379.5" y="-14.3" font-family="Times,serif" font-size="14.00">Darwin</text>
</a>
</g>
</g>
<!-- FreeBSD -->
<g id="node5" class="node">
<title>FreeBSD</title>
<g id="a_node5"><a xlink:href="https://unknown.com/" xlink:title="FreeBSD">
<polygon fill="lightgrey" stroke="black" points="513,-36 432,-36 432,0 513,0 513,-36"/>
<text text-anchor="middle" x="472.5" y="-14.3" font-family="Times,serif" font-size="14.00">FreeBSD</text>
</a>
</g>
</g>
<!-- Linux -->
<g id="node6" class="node">
<title>Linux</title>
<g id="a_node6"><a xlink:href="https://unknown.com/" xlink:title="Linux">
<polygon fill="lightgrey" stroke="black" points="587.5,-36 531.5,-36 531.5,0 587.5,0 587.5,-36"/>
<text text-anchor="middle" x="559.5" y="-14.3" font-family="Times,serif" font-size="14.00">Linux</text>
</a>
</g>
</g>
<!-- MulleObjCCalendarFoundation -->
<g id="node10" class="node">
<title>MulleObjCCalendarFoundation</title>
<g id="a_node10"><a xlink:href="https://github.com/MulleFoundation/MulleObjCCalendarFoundation" xlink:title="MulleObjCCalendarFoundation">
<polygon fill="lightgrey" stroke="black" points="237,-108 0,-108 0,-72 237,-72 237,-108"/>
<text text-anchor="middle" x="118.5" y="-86.3" font-family="Times,serif" font-size="14.00">MulleObjCCalendarFoundation</text>
</a>
</g>
</g>
<!-- MulleFoundation&#45;&gt;MulleObjCCalendarFoundation -->
<g id="edge4" class="edge">
<title>MulleFoundation&#45;&gt;MulleObjCCalendarFoundation</title>
<path fill="none" stroke="black" d="M364.76,-145.72C317.84,-135.3 255.3,-121.4 204.99,-110.22"/>
<polygon fill="black" stroke="black" points="205.62,-106.78 195.1,-108.02 204.11,-113.61 205.62,-106.78"/>
</g>
<!-- MulleObjCDecimalFoundation -->
<g id="node11" class="node">
<title>MulleObjCDecimalFoundation</title>
<g id="a_node11"><a xlink:href="https://github.com/MulleFoundation/MulleObjCDecimalFoundation" xlink:title="MulleObjCDecimalFoundation">
<polygon fill="lightgrey" stroke="black" points="485.5,-108 255.5,-108 255.5,-72 485.5,-72 485.5,-108"/>
<text text-anchor="middle" x="370.5" y="-86.3" font-family="Times,serif" font-size="14.00">MulleObjCDecimalFoundation</text>
</a>
</g>
</g>
<!-- MulleFoundation&#45;&gt;MulleObjCDecimalFoundation -->
<g id="edge5" class="edge">
<title>MulleFoundation&#45;&gt;MulleObjCDecimalFoundation</title>
<path fill="none" stroke="black" d="M417.93,-143.7C410.3,-135.22 400.98,-124.86 392.62,-115.58"/>
<polygon fill="black" stroke="black" points="395.19,-113.2 385.89,-108.1 389.98,-117.88 395.19,-113.2"/>
</g>
<!-- MulleObjCOSFoundation -->
<g id="node12" class="node">
<title>MulleObjCOSFoundation</title>
<g id="a_node12"><a xlink:href="https://github.com/MulleFoundation/MulleObjCOSFoundation" xlink:title="MulleObjCOSFoundation">
<polygon fill="lightgrey" stroke="black" points="697.5,-108 503.5,-108 503.5,-72 697.5,-72 697.5,-108"/>
<text text-anchor="middle" x="600.5" y="-86.3" font-family="Times,serif" font-size="14.00">MulleObjCOSFoundation</text>
</a>
</g>
</g>
<!-- MulleFoundation&#45;&gt;MulleObjCOSFoundation -->
<g id="edge6" class="edge">
<title>MulleFoundation&#45;&gt;MulleObjCOSFoundation</title>
<path fill="none" stroke="black" d="M474.35,-143.88C497.28,-134.26 526.08,-122.19 550.37,-112.01"/>
<polygon fill="black" stroke="black" points="551.91,-115.16 559.78,-108.07 549.2,-108.71 551.91,-115.16"/>
</g>
<!-- MulleObjCInetFoundation -->
<g id="node13" class="node">
<title>MulleObjCInetFoundation</title>
<g id="a_node13"><a xlink:href="https://github.com/MulleWeb/MulleObjCInetFoundation" xlink:title="MulleObjCInetFoundation">
<polygon fill="lightgrey" stroke="black" points="1006,-108 805,-108 805,-72 1006,-72 1006,-108"/>
<text text-anchor="middle" x="905.5" y="-86.3" font-family="Times,serif" font-size="14.00">MulleObjCInetFoundation</text>
</a>
</g>
</g>
<!-- MulleObjCHTTPFoundation&#45;&gt;MulleObjCInetFoundation -->
<g id="edge7" class="edge">
<title>MulleObjCHTTPFoundation&#45;&gt;MulleObjCInetFoundation</title>
<path fill="none" stroke="black" d="M826.19,-143.88C839.79,-134.81 856.67,-123.55 871.36,-113.76"/>
<polygon fill="black" stroke="black" points="873.34,-116.65 879.72,-108.19 869.45,-110.82 873.34,-116.65"/>
</g>
<!-- MulleFoundationBase -->
<g id="node9" class="node">
<title>MulleFoundationBase</title>
<g id="a_node9"><a xlink:href="https://github.com/MulleFoundation/MulleFoundationBase" xlink:title="MulleFoundationBase">
<polygon fill="lightgrey" stroke="black" points="1039.5,-36 867.5,-36 867.5,0 1039.5,0 1039.5,-36"/>
<text text-anchor="middle" x="953.5" y="-14.3" font-family="Times,serif" font-size="14.00">MulleFoundationBase</text>
</a>
</g>
</g>
<!-- MulleObjCOSFoundation&#45;&gt;BSD -->
<g id="edge9" class="edge">
<title>MulleObjCOSFoundation&#45;&gt;BSD</title>
<path fill="none" stroke="black" d="M503.46,-72.06C446.17,-61.61 378.37,-48.34 337.32,-35.79"/>
<polygon fill="black" stroke="black" points="338.33,-32.43 327.74,-32.7 336.18,-39.1 338.33,-32.43"/>
</g>
<!-- MulleObjCOSFoundation&#45;&gt;Darwin -->
<g id="edge10" class="edge">
<title>MulleObjCOSFoundation&#45;&gt;Darwin</title>
<path fill="none" stroke="black" d="M539.1,-71.89C504.87,-62.03 461.59,-49.04 423.5,-36 423.4,-35.97 423.3,-35.93 423.19,-35.9"/>
<polygon fill="black" stroke="black" points="424.11,-32.51 413.51,-32.44 421.76,-39.1 424.11,-32.51"/>
</g>
<!-- MulleObjCOSFoundation&#45;&gt;FreeBSD -->
<g id="edge11" class="edge">
<title>MulleObjCOSFoundation&#45;&gt;FreeBSD</title>
<path fill="none" stroke="black" d="M569.19,-71.88C552.3,-62.64 531.25,-51.13 513.12,-41.21"/>
<polygon fill="black" stroke="black" points="514.39,-37.92 503.93,-36.19 511.03,-44.06 514.39,-37.92"/>
</g>
<!-- MulleObjCOSFoundation&#45;&gt;Linux -->
<g id="edge12" class="edge">
<title>MulleObjCOSFoundation&#45;&gt;Linux</title>
<path fill="none" stroke="black" d="M590.37,-71.7C585.65,-63.64 579.94,-53.89 574.72,-44.98"/>
<polygon fill="black" stroke="black" points="577.59,-42.96 569.52,-36.1 571.55,-46.5 577.59,-42.96"/>
</g>
<!-- OSBase -->
<g id="node14" class="node">
<title>OSBase</title>
<g id="a_node14"><a xlink:href="https://unknown.com/" xlink:title="OSBase">
<polygon fill="lightgrey" stroke="black" points="677.5,-36 605.5,-36 605.5,0 677.5,0 677.5,-36"/>
<text text-anchor="middle" x="641.5" y="-14.3" font-family="Times,serif" font-size="14.00">OSBase</text>
</a>
</g>
</g>
<!-- MulleObjCOSFoundation&#45;&gt;OSBase -->
<g id="edge13" class="edge">
<title>MulleObjCOSFoundation&#45;&gt;OSBase</title>
<path fill="none" stroke="black" d="M610.63,-71.7C615.35,-63.64 621.06,-53.89 626.28,-44.98"/>
<polygon fill="black" stroke="black" points="629.45,-46.5 631.48,-36.1 623.41,-42.96 629.45,-46.5"/>
</g>
<!-- Posix -->
<g id="node15" class="node">
<title>Posix</title>
<g id="a_node15"><a xlink:href="https://unknown.com/" xlink:title="Posix">
<polygon fill="lightgrey" stroke="black" points="749.5,-36 695.5,-36 695.5,0 749.5,0 749.5,-36"/>
<text text-anchor="middle" x="722.5" y="-14.3" font-family="Times,serif" font-size="14.00">Posix</text>
</a>
</g>
</g>
<!-- MulleObjCOSFoundation&#45;&gt;Posix -->
<g id="edge14" class="edge">
<title>MulleObjCOSFoundation&#45;&gt;Posix</title>
<path fill="none" stroke="black" d="M630.34,-71.88C647.28,-62.16 668.61,-49.92 686.47,-39.67"/>
<polygon fill="black" stroke="black" points="688.53,-42.53 695.46,-34.51 685.05,-36.46 688.53,-42.53"/>
</g>
<!-- Windows -->
<g id="node16" class="node">
<title>Windows</title>
<g id="a_node16"><a xlink:href="https://unknown.com/" xlink:title="Windows">
<polygon fill="lightgrey" stroke="black" points="849,-36 768,-36 768,0 849,0 849,-36"/>
<text text-anchor="middle" x="808.5" y="-14.3" font-family="Times,serif" font-size="14.00">Windows</text>
</a>
</g>
</g>
<!-- MulleObjCOSFoundation&#45;&gt;Windows -->
<g id="edge15" class="edge">
<title>MulleObjCOSFoundation&#45;&gt;Windows</title>
<path fill="none" stroke="black" d="M651.39,-71.99C680.13,-62.37 716.94,-50.02 758.14,-36.12"/>
<polygon fill="black" stroke="black" points="759.49,-39.35 767.85,-32.84 757.25,-32.72 759.49,-39.35"/>
</g>
<!-- MulleObjCInetFoundation&#45;&gt;MulleFoundationBase -->
<g id="edge8" class="edge">
<title>MulleObjCInetFoundation&#45;&gt;MulleFoundationBase</title>
<path fill="none" stroke="black" d="M917.37,-71.7C923,-63.47 929.85,-53.48 936.07,-44.42"/>
<polygon fill="black" stroke="black" points="939,-46.33 941.77,-36.1 933.23,-42.37 939,-46.33"/>
</g>
</g>
</svg>
